<?xml version="1.0" encoding="UTF-8"?>
<svg version="1.1" xmlns="http://www.w3.org/2000/svg" width="676" height="714">
<path d="M0 0 C0.94725606 -0.00782324 1.89451212 -0.01564648 2.87047291 -0.02370679 C3.91332793 -0.01701463 4.95618296 -0.01032246 6.03063965 -0.00342751 C7.13712955 -0.00810748 8.24361944 -0.01278745 9.38363934 -0.01760924 C13.11179589 -0.02962671 16.83958939 -0.0200748 20.56774902 -0.01066017 C23.23371969 -0.01472343 25.89966494 -0.01995539 28.56562805 -0.02659035 C35.07345207 -0.03995914 41.5811725 -0.03703294 48.08900064 -0.02835242 C53.39095658 -0.02157467 58.6928835 -0.02065961 63.99484253 -0.02392387 C65.12737606 -0.02461342 65.12737606 -0.02461342 66.28278905 -0.0253169 C67.81696471 -0.02627615 69.35114037 -0.02724879 70.88531601 -0.02823468 C85.29453789 -0.03680135 99.70370266 -0.02694172 114.11291516 -0.01083358 C126.42422333 0.0025056 138.73544639 0.00029722 151.04675293 -0.01358986 C165.36753552 -0.02973627 179.68826757 -0.03590877 194.009058 -0.02675307 C195.54489771 -0.02579756 197.08073742 -0.02485444 198.61657715 -0.02392387 C199.74974635 -0.02322963 199.74974635 -0.02322963 200.90580785 -0.02252137 C206.17708591 -0.01995356 211.44833147 -0.02425557 216.71960449 -0.03136253 C223.180508 -0.03988183 229.64130258 -0.03728604 236.10219401 -0.0215203 C239.38656155 -0.01376468 242.67071676 -0.0120028 245.95508766 -0.02046776 C293.39077292 -0.13129633 340.05643208 8.33394414 380.41149902 34.37752342 C381.39183105 35.00980858 381.39183105 35.00980858 382.39196777 35.65486717 C391.83295149 41.80885463 400.50961278 48.55579417 408.91638184 56.05428123 C411.61766496 58.44503148 414.39301 60.75109542 417.15368652 63.07283592 C418.41149902 64.37752342 418.41149902 64.37752342 418.41149902 66.37752342 C419.07149902 66.37752342 419.73149902 66.37752342 420.41149902 66.37752342 C421.89196777 67.81111717 421.89196777 67.81111717 423.59899902 69.81502342 C424.2151709 70.53689842 424.83134277 71.25877342 425.46618652 72.00252342 C428.03522148 75.13901591 430.49947385 78.34843721 432.93103027 81.59236717 C434.3036797 83.49152669 434.3036797 83.49152669 436.41149902 84.37752342 C437.44191329 86.36202498 438.4359044 88.36550574 439.41149902 90.37752342 C440.74124516 92.6420416 442.09609979 94.89197851 443.47399902 97.12752342 C443.82526855 97.70373436 444.17653809 98.2799453 444.53845215 98.87361717 C446.0217198 101.27937075 447.40555466 103.37157905 449.41149902 105.37752342 C450.50014447 107.52097041 451.53550137 109.6917701 452.53649902 111.87752342 C453.07532715 113.04283592 453.61415527 114.20814842 454.16931152 115.40877342 C455.41149902 118.37752342 455.41149902 118.37752342 455.41149902 120.37752342 C456.07149902 120.70752342 456.73149902 121.03752342 457.41149902 121.37752342 C459.31822366 125.87317552 460.75943376 130.55308179 462.28649902 135.19002342 C462.51248779 135.8712426 462.73847656 136.55246178 462.97131348 137.25432396 C466.67510249 148.47486888 469.77731688 159.65674739 471.41149902 171.37752342 C471.58665039 172.57546532 471.76180176 173.77340721 471.94226074 175.00765038 C473.50008509 186.34208896 473.64945972 197.51500813 473.53649902 208.94002342 C473.52643246 210.74145065 473.51731322 212.54288342 473.50915527 214.3443203 C473.48747121 218.6888626 473.4531519 223.03312859 473.41149902 227.37752342 C472.75149902 227.37752342 472.09149902 227.37752342 471.41149902 227.37752342 C471.40763184 228.45840233 471.40763184 228.45840233 471.40368652 229.56111717 C470.9485687 242.19822218 467.58068586 254.19485425 464.41149902 266.37752342 C464.14949707 267.42762596 463.88749512 268.4777285 463.61755371 269.55965233 C463.36135254 270.5578701 463.10515137 271.55608788 462.84118652 272.58455467 C462.50063232 273.93190697 462.50063232 273.93190697 462.15319824 275.3064785 C461.41149902 277.37752342 461.41149902 277.37752342 459.41149902 278.37752342 C458.77831261 280.38261372 458.1453309 282.38776877 457.51306152 284.39314842 C440.84683836 329.54561118 401.98991397 366.67979614 359.41149902 387.37752342 C328.99444541 401.37752342 328.99444541 401.37752342 315.41149902 401.37752342 C315.08149902 402.03752342 314.75149902 402.69752342 314.41149902 403.37752342 C311.44665527 403.94002342 311.44665527 403.94002342 307.47399902 404.37752342 C306.20685059 404.52189842 304.93970215 404.66627342 303.63415527 404.81502342 C302.86651855 404.89575096 302.09888184 404.9764785 301.3079834 405.05965233 C299.03119165 405.30951602 296.75690194 405.58218828 294.48376465 405.86336327 C283.5739886 407.19232845 272.77054194 407.79249449 261.78649902 408.00252342 C260.09932005 408.03991868 258.41214562 408.07751985 256.72497559 408.11531639 C245.53813534 408.35315626 234.35077081 408.47749295 223.16149902 408.50252342 C222.47642273 408.50520226 221.79134644 408.50788109 221.08551025 408.5106411 C219.16814015 408.51639827 217.25075001 408.51359038 215.33337402 408.51033592 C213.71833984 408.50864403 213.71833984 408.50864403 212.07067871 408.50691795 C209.41149902 408.37752342 209.41149902 408.37752342 206.41149902 407.37752342 C206.08149902 408.03752342 205.75149902 408.69752342 205.41149902 409.37752342 C204.42149902 408.71752342 203.43149902 408.05752342 202.41149902 407.37752342 C202.08149902 408.36752342 201.75149902 409.35752342 201.41149902 410.37752342 C201.41149902 409.38752342 201.41149902 408.39752342 201.41149902 407.37752342 C200.56031494 407.45043602 199.70913086 407.52334862 198.83215332 407.59847069 C190.16533521 408.24656684 181.55965223 408.44938766 172.86853027 408.40486717 C171.20997513 408.39660408 171.20997513 408.39660408 169.51791382 408.38817406 C164.91163888 408.36049346 160.30549191 408.32528626 155.69934082 408.28157616 C152.29739871 408.25144528 148.89556277 408.2336471 145.49353027 408.21736717 C144.45396683 408.20390755 143.41440338 408.19044792 142.34333801 408.17658043 C141.37430038 408.17320168 140.40526276 408.16982292 139.40686035 408.16634178 C138.13688957 408.15515564 138.13688957 408.15515564 136.84126282 408.14374352 C134.07486147 408.40991303 131.93426199 409.23963291 129.41149902 410.37752342 C128.55056237 426.78515126 128.29217058 443.14345059 128.36689949 459.57188225 C128.38461278 463.59069878 128.39490178 467.6094725 128.40281677 471.62831688 C128.42665469 483.03320258 128.46320285 494.43803162 128.50744629 505.84285545 C128.53198937 512.19063147 128.54934468 518.53838752 128.55900568 524.886204 C128.56445774 528.22723407 128.57500532 531.56806909 128.59239388 534.90907097 C128.61153136 538.61050947 128.61849323 542.31178445 128.62268066 546.01326561 C128.63144226 547.11132027 128.64020386 548.20937492 128.64923096 549.34070396 C128.64792679 550.34645973 128.64662262 551.3522155 128.64527893 552.38844872 C128.64842134 553.26063419 128.65156374 554.13281967 128.65480137 555.03143501 C128.38384288 557.64420299 127.89829597 559.21182524 126.41149902 561.37752342 C119.00639064 563.91755522 111.45465437 563.5846619 103.71337891 563.47154808 C100.02696194 563.41816294 96.34041913 563.39668264 92.65368652 563.37752342 C91.93310059 563.37337929 91.21251465 563.36923515 90.47009277 563.36496544 C83.50765371 563.34208639 76.61439755 563.70552854 69.67712402 564.25642967 C66.21288367 564.44796441 62.87621473 564.19745347 59.42199707 563.88680077 C52.92141146 563.36563797 46.49549153 563.27930004 39.97790527 563.35017967 C37.67777648 563.36280917 35.3776462 563.37517133 33.07751465 563.38728905 C29.5072348 563.41220084 25.93703492 563.44036617 22.36682129 563.47347069 C18.88301078 563.50365722 15.39930467 563.52142514 11.91540527 563.53767967 C10.84971817 563.5511393 9.78403107 563.56459892 8.68605042 563.57846642 C-1.3528594 563.61243073 -1.3528594 563.61243073 -5.58850098 561.37752342 C-9.21273285 556.90592063 -9.00895361 552.75985838 -8.96043777 547.2731638 C-8.9641989 546.34962769 -8.96796003 545.42609158 -8.97183514 544.47456953 C-8.98081763 541.36281507 -8.96830832 538.25151408 -8.95599365 535.13977623 C-8.95801699 532.89314478 -8.96135517 530.64651419 -8.96589923 528.39988643 C-8.9745714 522.21271625 -8.9644593 516.02569548 -8.95135689 509.83853829 C-8.94159966 503.85539857 -8.94590867 497.87227386 -8.94986794 491.88913119 C-8.95746156 479.64660885 -8.95093683 467.40413159 -8.93625641 455.16161728 C-8.9217296 443.03289183 -8.91297033 430.90418611 -8.91207123 418.77545166 C-8.91201013 418.02139736 -8.91194904 417.26734306 -8.91188609 416.49043863 C-8.91165658 413.42957884 -8.9114694 410.36871905 -8.91133796 407.30785926 C-8.91012611 379.40211248 -8.89442098 351.49639332 -8.86975098 323.59065819 C-8.84646553 297.24560393 -8.8322855 270.90056641 -8.82873535 244.55550194 C-8.82862384 243.7441636 -8.82851232 242.93282527 -8.82839743 242.09690092 C-8.82794857 238.82590461 -8.82750659 235.5549083 -8.827065 232.28391199 C-8.82684462 230.65382869 -8.82662333 229.0237454 -8.82640112 227.3936621 C-8.82617976 225.76758129 -8.82596099 224.14150048 -8.82574482 222.51541967 C-8.8222292 196.61826208 -8.8107673 170.72110764 -8.79793848 144.82395321 C-8.79421985 137.24109308 -8.79095498 129.65823317 -8.78868961 122.07537246 C-8.78387963 106.12538672 -8.77678956 90.17541101 -8.76054195 74.22543224 C-8.75389389 67.62811228 -8.74886864 61.03079918 -8.74808121 54.43347549 C-8.7472948 48.39655021 -8.7418932 42.35964748 -8.73276171 36.32272921 C-8.73025174 34.13634563 -8.72942111 31.94995936 -8.7304205 29.76357456 C-8.73151535 26.79549211 -8.72649453 23.82748044 -8.71992874 20.85940647 C-8.72169821 20.00748355 -8.72346768 19.15556063 -8.72529078 18.27782187 C-8.67533446 5.06129816 -8.67533446 5.06129816 -6.31278229 1.40111864 C-4.07729569 0.07405363 -2.59855614 0.0015442 0 0 Z " fill="#FE8859" transform="translate(112.5885009765625,81.62247657775879)"/>
<path d="M0 0 C4.19700391 1.43461224 7.16583664 3.49362181 10.625 6.25 C11.77980429 7.15809151 12.93614893 8.06422643 14.09375 8.96875 C14.71894531 9.45730469 15.34414062 9.94585937 15.98828125 10.44921875 C19.65579901 13.27641205 23.39196314 16.01025434 27.125 18.75 C27.9308252 19.34200195 28.73665039 19.93400391 29.56689453 20.54394531 C31.2204157 21.758204 32.87422626 22.9720687 34.52832031 24.18554688 C38.52303718 27.11805732 42.51131275 30.05929652 46.5 33 C51.23616729 36.49116514 55.97321531 39.98109809 60.71484375 43.46484375 C68.83972044 49.43743522 76.93922068 55.44111647 85 61.5 C98.83859356 71.89648629 112.67507685 82.27859793 127 92 C125.66061969 95.11622789 124.38725324 96.74803091 121.60546875 98.671875 C120.90824707 99.16284668 120.21102539 99.65381836 119.49267578 100.15966797 C118.73196777 100.68447754 117.97125977 101.20928711 117.1875 101.75 C115.54120268 102.91156347 113.8967447 104.07573717 112.25390625 105.2421875 C111.39168457 105.85416992 110.52946289 106.46615234 109.64111328 107.09667969 C105.23703572 110.27048156 100.93172617 113.5709128 96.625 116.875 C89.61200663 122.24750816 82.57532471 127.58480519 75.5 132.875 C69.14295379 137.63165388 62.81718311 142.42194493 56.53515625 147.27734375 C50.95691238 151.58321123 45.34018214 155.8389864 39.73217773 160.10595703 C35.36424649 163.43101762 31.00161873 166.76201676 26.66186523 170.1237793 C24.11593079 172.09298578 21.55682583 174.04496755 19 176 C18.36271973 176.49467773 17.72543945 176.98935547 17.06884766 177.49902344 C15.03438142 179.07443808 12.98735866 180.63218766 10.9375 182.1875 C10.30537598 182.6822583 9.67325195 183.1770166 9.02197266 183.68676758 C4.52934115 187.05836553 4.52934115 187.05836553 1.95849609 186.77490234 C-1.21026369 185.52114473 -3.12506017 182.95183803 -5.3125 180.4375 C-5.79235352 179.89681885 -6.27220703 179.3561377 -6.76660156 178.79907227 C-7.73063848 177.7113787 -8.69146742 176.62083265 -9.64892578 175.52734375 C-10.84566251 174.17447332 -12.07491184 172.85051728 -13.30859375 171.53125 C-13.94925781 170.8403125 -14.58992187 170.149375 -15.25 169.4375 C-15.81203125 168.83808594 -16.3740625 168.23867188 -16.953125 167.62109375 C-17.29859375 167.08613281 -17.6440625 166.55117188 -18 166 C-16.7498391 162.2495173 -15.43950819 161.60552213 -12.25 159.3125 C-11.15135872 158.51176642 -10.05378781 157.70956311 -8.95703125 156.90625 C-8.33521973 156.4525 -7.7134082 155.99875 -7.07275391 155.53125 C-2.98668128 152.51265783 1.03021761 149.40233348 5.0625 146.3125 C11.88735752 141.09621527 18.75471973 135.94687231 25.6875 130.875 C32.62573491 125.79759438 39.43639238 120.58030283 46.20043945 115.27368164 C54.03713385 109.14659147 62.05086422 103.26480639 70.08740234 97.40356445 C72.06882284 95.94949419 74.03627053 94.47784982 76 93 C74.69046562 89.07139685 73.06631065 88.45425752 69.625 86.1875 C63.93469326 82.36746202 58.38199626 78.39223724 52.875 74.3125 C52.06949707 73.71655029 51.26399414 73.12060059 50.43408203 72.5065918 C48.77955314 71.2817831 47.1254216 70.05643747 45.47167969 68.83056641 C41.48681608 65.87931124 37.49313405 62.9400497 33.5 60 C28.73611112 56.49121167 23.97328184 52.98102184 19.21484375 49.46484375 C10.44041086 42.98445042 1.63900061 36.54484522 -7.21508789 30.17358398 C-10.4987307 27.81055343 -13.77850199 25.44766559 -17 23 C-15.23797795 18.84370094 -12.42213477 15.55523802 -9.625 12.0625 C-9.14289063 11.45470703 -8.66078125 10.84691406 -8.1640625 10.22070312 C-6.77990614 8.47734314 -5.39096037 6.73793395 -4 5 C-3.22398437 4.02933594 -2.44796875 3.05867187 -1.6484375 2.05859375 C-0.83246094 1.03958984 -0.83246094 1.03958984 0 0 Z " fill="#FECA97" transform="translate(210,170)"/>
<path d="M0 0 C1.4421602 -0.01080981 1.4421602 -0.01080981 2.91345495 -0.02183801 C4.50127062 -0.01077658 4.50127062 -0.01077658 6.12116337 0.00050831 C7.24388128 -0.0034661 8.36659919 -0.0074405 9.52333885 -0.01153535 C13.30518372 -0.02120015 17.0866584 -0.00931465 20.86849308 0.00241566 C23.57177666 0.00164589 26.2750473 -0.00361224 28.97832584 -0.00864697 C35.57068097 -0.01814711 42.16292683 -0.01152436 48.75527387 0.00061598 C56.42879311 0.01422202 64.10228618 0.01259933 71.77581442 0.01048265 C85.46607222 0.00729093 99.15627804 0.0189705 112.84652042 0.03854847 C126.13690112 0.05754967 139.42722087 0.06463721 152.71761417 0.05905628 C167.1813682 0.05300061 181.6450954 0.05317195 196.1088472 0.06454211 C197.65073399 0.06574943 199.19262077 0.06695542 200.73450756 0.06816006 C201.87253133 0.06906537 201.87253133 0.06906537 203.03354548 0.06998896 C208.38474994 0.07387117 213.73594443 0.0734733 219.08714962 0.07157421 C225.60761575 0.06945364 232.12802845 0.07466574 238.64847951 0.08918776 C241.97655117 0.09643944 245.30447947 0.09943446 248.63256741 0.0959444 C252.23725153 0.09273701 255.8416989 0.10176823 259.44635868 0.1140337 C260.50267174 0.11025438 261.55898479 0.10647505 262.64730734 0.1025812 C264.09337916 0.11132949 264.09337916 0.11132949 265.56866455 0.12025452 C266.40090418 0.12112129 267.23314381 0.12198807 268.09060282 0.12288111 C270.56667575 0.39921837 272.20384042 1.13492841 274.34725285 2.37473011 C273.76150897 2.37646636 273.1757651 2.37820261 272.57227141 2.37999147 C237.89277154 2.48291383 203.21329176 2.59100334 168.53382931 2.70584705 C164.37422517 2.71961741 160.21462089 2.73334439 156.05501652 2.74704456 C155.22687854 2.74977287 154.39874055 2.75250117 153.54550748 2.75531215 C140.11844863 2.79944409 126.69138132 2.84005806 113.26430763 2.87938272 C99.49734871 2.91978072 85.73040558 2.96393421 71.96346992 3.01160866 C63.46156377 3.04093107 54.95965886 3.0672883 46.45773219 3.08990908 C40.63571522 3.10567952 34.81371759 3.1250821 28.99172205 3.14739852 C25.62762677 3.16018445 22.26356152 3.17077732 18.89944744 3.17814922 C15.26076424 3.1863733 11.62215522 3.20063926 7.98349857 3.21651173 C6.37117882 3.21797889 6.37117882 3.21797889 4.72628695 3.21947569 C3.75939532 3.22495013 2.7925037 3.23042457 1.79631233 3.23606491 C0.9552318 3.23872295 0.11415127 3.241381 -0.75241655 3.24411958 C-2.66341021 3.16640744 -2.66341021 3.16640744 -3.65274715 4.37473011 C-3.75182268 7.31262992 -3.78448981 10.22705098 -3.77579498 13.16541862 C-3.77694883 14.10361986 -3.77810267 15.0418211 -3.77929148 16.00845268 C-3.78196623 19.19396266 -3.77742898 22.37942343 -3.77300167 25.56493092 C-3.7734372 27.85505829 -3.77431176 30.14518563 -3.77559084 32.43531269 C-3.77783944 38.7609331 -3.77380955 45.08653676 -3.76881278 51.41215503 C-3.76446771 57.52307658 -3.76577195 63.6339982 -3.76649462 69.74492082 C-3.76781066 82.2513486 -3.76445899 94.75777111 -3.75847721 107.26419735 C-3.75256683 119.65300555 -3.74871261 132.04181155 -3.7476244 144.43062115 C-3.74755566 145.19997487 -3.74748692 145.96932859 -3.7474161 146.76199607 C-3.74707778 150.66891203 -3.74677639 154.575828 -3.74648922 158.48274397 C-3.74438697 186.17908134 -3.7376445 213.87541584 -3.72818661 241.57175159 C-3.7190071 268.48386081 -3.71192108 295.39596925 -3.70767879 322.30807972 C-3.70754727 323.13714922 -3.70741574 323.96621873 -3.70728023 324.82041155 C-3.70596175 333.14601888 -3.70468593 341.47162622 -3.70344137 349.79723357 C-3.70090493 366.7585262 -3.69808368 383.71981878 -3.69509029 400.68111134 C-3.694953 401.4610204 -3.69481571 402.24092946 -3.69467426 403.04447213 C-3.69044989 426.95693172 -3.68501794 450.86939082 -3.67839718 474.78184986 C-3.67820962 475.46095398 -3.67802206 476.1400581 -3.67782882 476.83974114 C-3.67021225 504.35140435 -3.6613192 531.86306718 -3.65274715 559.37473011 C38.58725285 559.37473011 80.82725285 559.37473011 124.34725285 559.37473011 C125.69092687 556.68738206 125.48739896 554.6018199 125.50547123 551.59149647 C125.51526005 550.36028065 125.52504887 549.12906483 125.53513432 547.86053944 C125.54103887 546.48880521 125.54684929 545.11707057 125.55257511 543.74533558 C125.56215115 542.30663234 125.57216107 540.86793193 125.58257389 539.4292345 C125.60965872 535.51627266 125.63064887 531.60329871 125.65057588 527.69029474 C125.6724134 523.60364884 125.69981299 519.51704039 125.72663212 515.43042469 C125.77658927 507.68858132 125.82151687 499.94671719 125.86465448 492.20483315 C125.91400106 483.39235417 125.96892873 474.57991277 126.02433407 465.76747012 C126.13820051 447.63659167 126.24502938 429.50567776 126.34725285 411.37473011 C126.67725285 411.37473011 127.00725285 411.37473011 127.34725285 411.37473011 C128.28354964 428.71730375 128.51031635 446.02112399 128.5152216 463.38644886 C128.51665049 464.73081258 128.51824761 466.07517613 128.52000713 467.41953945 C128.52916109 474.4268241 128.53335249 481.43409007 128.53255558 488.4413805 C128.53194922 494.94754528 128.54263451 501.45362866 128.55829924 507.95977277 C128.57136138 513.58743255 128.57674043 519.21506552 128.57610017 524.84274036 C128.5758459 528.18711006 128.57958982 531.53134753 128.58927822 534.87571239 C128.59903239 538.58208026 128.59622091 542.28823211 128.59017277 545.99460316 C128.59579227 547.09422886 128.60141178 548.19385456 128.60720158 549.32680225 C128.60300709 550.33400318 128.5988126 551.34120411 128.594491 552.37892628 C128.59503577 553.25241057 128.59558054 554.12589487 128.59614182 555.02584839 C128.31946594 557.63696814 127.83302767 559.20953403 126.34725285 561.37473011 C118.94214446 563.91476191 111.39040819 563.58186859 103.64913273 563.46875477 C99.96271576 563.41536963 96.27617295 563.39388932 92.58944035 563.37473011 C91.86885441 563.37058598 91.14826847 563.36644184 90.4058466 563.36217213 C83.44340754 563.33929308 76.55015137 563.70273523 69.61287785 564.25363636 C66.14863749 564.4451711 62.81196855 564.19466015 59.35775089 563.88400745 C52.85716528 563.36284466 46.43124536 563.27650673 39.9136591 563.34738636 C37.6135303 563.36001586 35.31340002 563.37237802 33.01326847 563.38449574 C29.44298862 563.40940753 25.87278874 563.43757286 22.30257511 563.47067738 C18.8187646 563.5008639 15.33505849 563.51863182 11.8511591 563.53488636 C10.78547199 563.54834599 9.71978489 563.56180561 8.62180424 563.5756731 C-1.41710558 563.60963742 -1.41710558 563.60963742 -5.65274715 561.37473011 C-9.27697903 556.90312732 -9.07319979 552.75706507 -9.02468395 547.27037048 C-9.02844508 546.34683438 -9.03220621 545.42329827 -9.03608131 544.47177622 C-9.0450638 541.36002175 -9.0325545 538.24872076 -9.02023983 535.13698292 C-9.02226317 532.89035147 -9.02560134 530.64372088 -9.03014541 528.39709312 C-9.03881758 522.20992294 -9.02870548 516.02290217 -9.01560307 509.83574498 C-9.00584584 503.85260526 -9.01015485 497.86948054 -9.01411412 491.88633788 C-9.02170774 479.64381554 -9.015183 467.40133828 -9.00050259 455.15882397 C-8.98597578 443.03009851 -8.97721651 430.9013928 -8.97631741 418.77265835 C-8.97625631 418.01860405 -8.97619522 417.26454975 -8.97613227 416.48764532 C-8.97590276 413.42678553 -8.97571558 410.36592574 -8.97558413 407.30506595 C-8.97437229 379.39931917 -8.95866716 351.4936 -8.93399715 323.58786488 C-8.91071171 297.24281062 -8.89653167 270.8977731 -8.89298153 244.55270863 C-8.89287001 243.74137029 -8.8927585 242.93003196 -8.8926436 242.09410761 C-8.89219475 238.8231113 -8.89175277 235.55211499 -8.89131118 232.28111868 C-8.8910908 230.65103538 -8.8908695 229.02095208 -8.8906473 227.39086879 C-8.89042594 225.76478798 -8.89020717 224.13870717 -8.88999099 222.51262636 C-8.88647538 196.61546877 -8.87501347 170.71831433 -8.86218466 144.8211599 C-8.85846602 137.23829977 -8.85520116 129.65543986 -8.85293579 122.07257915 C-8.8481258 106.12259341 -8.84103573 90.1726177 -8.82478812 74.22263893 C-8.81814007 67.62531897 -8.81311482 61.02800587 -8.81232738 54.43068218 C-8.81154098 48.3937569 -8.80613938 42.35685417 -8.79700789 36.3199359 C-8.79449791 34.13355232 -8.79366729 31.94716604 -8.79466668 29.76078125 C-8.79576153 26.7926988 -8.7907407 23.82468713 -8.78417492 20.85661316 C-8.78594439 20.00469024 -8.78771386 19.15276732 -8.78953695 18.27502856 C-8.73960142 5.06400285 -8.73960142 5.06400285 -6.38104385 1.39815074 C-4.12579376 0.06269169 -2.6199091 -0.00017322 0 0 Z " fill="#FD7D53" transform="translate(112.65274715423584,81.62526988983154)"/>
<path d="M0 0 C41.58 0 83.16 0 126 0 C126 7.59 126 15.18 126 23 C84.42 23 42.84 23 0 23 C0 15.41 0 7.82 0 0 Z " fill="#FECF9B" transform="translate(333,341)"/>
<path d="M0 0 C0.33 0 0.66 0 1 0 C1 180.18 1 360.36 1 546 C0.01 545.67 -0.98 545.34 -2 545 C-2.0171229 494.66903764 -2.03304293 444.33807507 -2.04234314 394.0071106 C-2.0424812 393.2618825 -2.04261925 392.5166544 -2.04276149 391.74884363 C-2.04575459 375.55199958 -2.04852474 359.35515549 -2.05106533 343.15831136 C-2.05231264 335.21507866 -2.0536092 327.27184597 -2.05493164 319.32861328 C-2.05512778 318.14295928 -2.05512778 318.14295928 -2.05532788 316.93335267 C-2.05958721 291.32524941 -2.06709702 265.71714836 -2.07629722 240.10904643 C-2.0857365 213.78758999 -2.091887 187.46613476 -2.09391499 161.14467665 C-2.09420313 157.42469944 -2.09452877 153.70472223 -2.09487724 149.98474503 C-2.09494467 149.25261919 -2.09501209 148.52049336 -2.09508156 147.7661819 C-2.09626206 135.99353826 -2.10089683 124.22089841 -2.10683203 112.44825632 C-2.11272871 100.60517997 -2.11488481 88.7621077 -2.11350138 76.91902994 C-2.11286095 70.50529727 -2.11384224 64.0915757 -2.11920547 57.677845 C-2.12408347 51.80139697 -2.12430979 45.92496745 -2.12089889 40.04851855 C-2.12047753 37.92715258 -2.12173603 35.80578544 -2.12488318 33.68442176 C-2.15813338 9.87986087 -2.15813338 9.87986087 -1 1 C-0.67 0.67 -0.34 0.34 0 0 Z " fill="#FD542E" transform="translate(106,93)"/>
<path d="M0 0 C0.33 0 0.66 0 1 0 C1.93629679 17.34257364 2.1630635 34.64639388 2.16796875 52.01171875 C2.16939764 53.35608247 2.17099476 54.70044602 2.17275429 56.04480934 C2.18190825 63.05209399 2.18609964 70.05935996 2.18530273 77.06665039 C2.18469637 83.57281517 2.19538166 90.07889855 2.2110464 96.58504266 C2.22410854 102.21270244 2.22948758 107.84033541 2.22884732 113.46801025 C2.22859305 116.81237995 2.23233698 120.15661742 2.24202538 123.50098228 C2.25177955 127.20735015 2.24896806 130.913502 2.24291992 134.61987305 C2.24853943 135.71949875 2.25415894 136.81912445 2.25994873 137.95207214 C2.25575424 138.95927307 2.25155975 139.966474 2.24723816 141.00419617 C2.24778293 141.87768046 2.24832769 142.75116476 2.24888897 143.65111828 C1.9722131 146.26223803 1.48577483 147.83480392 0 150 C-7.40510838 152.5400318 -14.95684465 152.20713848 -22.69812012 152.09402466 C-26.38453708 152.04063952 -30.07107989 152.01915921 -33.7578125 152 C-34.83869141 151.9937838 -34.83869141 151.9937838 -35.94140625 151.98744202 C-42.90384531 151.96456297 -49.79710147 152.32800512 -56.734375 152.87890625 C-60.19861535 153.07044098 -63.5352843 152.81993004 -66.98950195 152.50927734 C-73.49008757 151.98811455 -79.91600749 151.90177662 -86.43359375 151.97265625 C-88.73372255 151.98528575 -91.03385282 151.99764791 -93.33398438 152.00976562 C-96.90426423 152.03467742 -100.4744641 152.06284275 -104.04467773 152.09594727 C-107.52848825 152.12613379 -111.01219435 152.14390171 -114.49609375 152.16015625 C-116.0946244 152.18034569 -116.0946244 152.18034569 -117.72544861 152.20094299 C-127.5533851 152.23419353 -127.5533851 152.23419353 -132 150 C-132.33 149.01 -132.66 148.02 -133 147 C-132.01 147.33 -131.02 147.66 -130 148 C-128.26183689 148.0903134 -126.52036845 148.12195922 -124.77986145 148.12025452 C-123.15815788 148.12231651 -123.15815788 148.12231651 -121.50369263 148.12442017 C-119.72452957 148.11902725 -119.72452957 148.11902725 -117.90942383 148.11352539 C-116.66052872 148.11367142 -115.41163361 148.11381744 -114.12489319 148.1139679 C-110.69953667 148.11339013 -107.27424024 148.10837085 -103.84889436 148.10139394 C-100.26943784 148.09514756 -96.68998054 148.09455558 -93.11051941 148.09336853 C-86.33199544 148.09025901 -79.55348758 148.08205072 -72.77497071 148.07201904 C-65.05800062 148.06084615 -57.34102976 148.05534448 -49.6240536 148.05032361 C-33.74935973 148.0398678 -17.87468194 148.02227568 -2 148 C-0.65632598 145.31265195 -0.85985388 143.22708979 -0.84178162 140.21676636 C-0.8319928 138.98555054 -0.82220398 137.75433472 -0.81211853 136.48580933 C-0.80621397 135.1140751 -0.80040355 133.74234046 -0.79467773 132.37060547 C-0.78510169 130.93190223 -0.77509177 129.49320182 -0.76467896 128.05450439 C-0.73759412 124.14154255 -0.71660397 120.2285686 -0.69667697 116.31556463 C-0.67483945 112.22891873 -0.64743985 108.14231028 -0.62062073 104.05569458 C-0.57066357 96.31385121 -0.52573598 88.57198708 -0.48259836 80.83010304 C-0.43325179 72.01762406 -0.37832411 63.20518266 -0.32291877 54.39274001 C-0.20905233 36.26186155 -0.10222347 18.13094765 0 0 Z " fill="#FE6840" transform="translate(239,493)"/>
<path d="M0 0 C49.5 0 99 0 150 0 C145.7319576 2.1340212 142.61236038 2.34298893 137.984375 2.4140625 C136.78982948 2.44324768 136.78982948 2.44324768 135.57115173 2.47302246 C132.96420976 2.5336318 130.35725246 2.57987053 127.75 2.625 C125.95157101 2.66222423 124.15314977 2.699825 122.35473633 2.73779297 C110.80004962 2.96909204 99.24443565 3.09891134 87.6875 3.125 C86.66444763 3.12901825 86.66444763 3.12901825 85.62072754 3.13311768 C83.70939994 3.13887364 81.79805224 3.13606733 79.88671875 3.1328125 C78.81639404 3.13168457 77.74606934 3.13055664 76.64331055 3.12939453 C74 3 74 3 71 2 C70.67 2.66 70.34 3.32 70 4 C69.01 3.34 68.02 2.68 67 2 C66.67 2.99 66.34 3.98 66 5 C66 4.01 66 3.02 66 2 C64.64165039 2.10501831 64.64165039 2.10501831 63.25585938 2.2121582 C52.5938124 2.96470283 41.97524315 3.18624583 31.28808594 3.18530273 C28.47576391 3.1875191 25.66381717 3.20584476 22.8515625 3.22460938 C21.03645965 3.22753935 19.22135497 3.22952679 17.40625 3.23046875 C16.57903442 3.23765427 15.75181885 3.24483978 14.89953613 3.25224304 C9.61285129 3.2316183 5.08306067 2.46825386 0 1 C0 0.67 0 0.34 0 0 Z " fill="#FE6B36" transform="translate(248,487)"/>
<path d="M0 0 C42.57 0 85.14 0 129 0 C129 0.33 129 0.66 129 1 C120.83737904 2.06288452 112.78306835 2.07964961 104.5625 2 C95.14577965 1.93653977 85.76727604 1.95855492 76.37524414 2.73242188 C72.18655769 3.03857511 68.19188389 2.88720315 64.00610352 2.51147461 C57.49761889 1.98929993 51.05729305 1.88615113 44.53125 1.9375 C42.84533752 1.94317993 42.84533752 1.94317993 41.12536621 1.94897461 C37.5835357 1.96105225 34.04179227 1.97969488 30.5 2 C25.80208567 2.02661349 21.10421127 2.04656379 16.40625 2.0625 C14.79997742 2.07494751 14.79997742 2.07494751 13.16125488 2.08764648 C12.16251343 2.09094971 11.16377197 2.09425293 10.13476562 2.09765625 C8.82457458 2.10551147 8.82457458 2.10551147 7.48791504 2.11352539 C4.90302847 1.99557512 2.5203899 1.57125637 0 1 C0 0.67 0 0.34 0 0 Z " fill="#FD7C50" transform="translate(108,643)"/>
<path d="M0 0 C0.33 0 0.66 0 1 0 C2.21340235 25.32977397 2.10438324 50.64772068 2 76 C1.01 75.67 0.02 75.34 -1 75 C-1.02312465 65.36887288 -1.04091571 55.73775526 -1.05181217 46.10660648 C-1.05704074 41.63494451 -1.06413789 37.16330147 -1.07543945 32.69165039 C-1.08626929 28.37988027 -1.09227704 24.06812841 -1.09487724 19.75634575 C-1.09673132 18.10763702 -1.1003516 16.45892934 -1.10573006 14.81022835 C-1.11294178 12.50896128 -1.11399089 10.2077706 -1.11352539 7.90649414 C-1.115746 6.5941127 -1.11796661 5.28173126 -1.12025452 3.92958069 C-1 1 -1 1 0 0 Z " fill="#FD5B2E" transform="translate(105,563)"/>
<path d="M0 0 C0.66 0 1.32 0 2 0 C1.67 1.32 1.34 2.64 1 4 C-42.56 4 -86.12 4 -131 4 C-131.33 3.01 -131.66 2.02 -132 1 C-131.01 1.33 -130.02 1.66 -129 2 C-127.26183689 2.0903134 -125.52036845 2.12195922 -123.77986145 2.12025452 C-122.15815788 2.12231651 -122.15815788 2.12231651 -120.50369263 2.12442017 C-119.31758392 2.12082489 -118.13147522 2.11722961 -116.90942383 2.11352539 C-115.66052872 2.11367142 -114.41163361 2.11381744 -113.12489319 2.1139679 C-109.69953667 2.11339013 -106.27424024 2.10837085 -102.84889436 2.10139394 C-99.26943784 2.09514756 -95.68998054 2.09455558 -92.11051941 2.09336853 C-85.33199544 2.09025901 -78.55348758 2.08205072 -71.77497071 2.07201904 C-64.05800062 2.06084615 -56.34102976 2.05534448 -48.6240536 2.05032361 C-32.74935973 2.0398678 -16.87468194 2.02227568 -1 2 C-0.67 1.34 -0.34 0.68 0 0 Z " fill="#FE4323" transform="translate(238,639)"/>
<path d="M0 0 C4.02878753 3.43920887 5.9040437 8.33945352 8.28125 12.96875 C9.72196887 15.5096542 10.93200968 17.03288725 13 19 C13 19.66 13 20.32 13 21 C13.66 21.33 14.32 21.66 15 22 C16.80873077 26.1029762 18.16805529 30.38620148 19.625 34.625 C20.04523437 35.80191406 20.46546875 36.97882813 20.8984375 38.19140625 C21.29546875 39.33738281 21.6925 40.48335937 22.1015625 41.6640625 C22.46588379 42.71029785 22.83020508 43.7565332 23.20556641 44.83447266 C24.08207689 48.32704637 24.13711011 51.41313181 24 55 C23.34 55 22.68 55 22 55 C21.77449463 54.28158936 21.54898926 53.56317871 21.31665039 52.82299805 C16.07662264 36.26852387 10.55081461 20.14138185 1.73828125 5.109375 C0 2 0 2 0 0 Z " fill="#FCB36D" transform="translate(555,181)"/>
<path d="M0 0 C7.00510527 0.99782614 11.61759714 3.25084083 17.125 7.625 C17.81787109 8.15899414 18.51074219 8.69298828 19.22460938 9.24316406 C24.04310455 13.03368321 28.37092182 17.02465088 32 22 C28.42808296 22 28.02077328 21.41190492 25.5 19.0625 C23.19604302 16.92527675 22.05243655 16.01747885 19 15 C19 14.34 19 13.68 19 13 C18.41863281 12.72929687 17.83726562 12.45859375 17.23828125 12.1796875 C15.00483153 11.00254646 13.16951599 9.68316328 11.1875 8.125 C7.60624706 5.38362814 3.96307043 3.14666315 0 1 C0 0.67 0 0.34 0 0 Z " fill="#FBAC68" transform="translate(489,117)"/>
<path d="M0 0 C0.99 0 1.98 0 3 0 C2.90560956 5.90439033 2.79933845 11.80841117 2.68261719 17.71240234 C2.64461434 19.71592542 2.60971457 21.71951008 2.578125 23.72314453 C2.23729828 45.07806848 2.23729828 45.07806848 0 55 C-0.33 55 -0.66 55 -1 55 C-0.9285376 54.00556885 -0.8570752 53.0111377 -0.78344727 51.98657227 C-0.0149076 40.62523994 0.12038532 29.32124911 0.0625 17.9375 C0.05746611 16.1842461 0.0529066 14.43099076 0.04882812 12.67773438 C0.03799243 8.45178653 0.02083624 4.22590988 0 0 Z " fill="#FDBF78" transform="translate(582,261)"/>
<path d="M0 0 C0.66 0 1.32 0 2 0 C2.66509667 13.34261759 3.16139646 26.63995943 3 40 C1.515 40.495 1.515 40.495 0 41 C0 27.47 0 13.94 0 0 Z " fill="#FD5B32" transform="translate(104,341)"/>
<path d="M0 0 C9.96840513 0.18214694 17.8592475 2.28614104 27 6 C26.01 7.485 26.01 7.485 25 9 C22.36 8.34 19.72 7.68 17 7 C17 6.01 17 5.02 17 4 C15.7625 4.3403125 15.7625 4.3403125 14.5 4.6875 C8.86945823 5.19022694 4.62755583 3.08503722 0 0 Z " fill="#FDA465" transform="translate(434,93)"/>
<path d="M0 0 C0.99 0 1.98 0 3 0 C3.53384694 2.53954308 4.05230194 5.0806935 4.5625 7.625 C4.71396484 8.33785156 4.86542969 9.05070313 5.02148438 9.78515625 C5.8844477 14.16017964 6.05256724 17.58061174 5 22 C4.34 22 3.68 22 3 22 C2.875 16.25 2.875 16.25 4 14 C3.34 14 2.68 14 2 14 C1.66179834 12.4176994 1.32964061 10.83410625 1 9.25 C0.814375 8.36828125 0.62875 7.4865625 0.4375 6.578125 C0 4 0 4 0 0 Z " fill="#FCAD69" transform="translate(578,237)"/>
<path d="M0 0 C7.30313479 4.58568929 11.34019216 8.75459569 14 17 C14.66066719 18.66905395 15.32438252 20.3369416 16 22 C11.62371007 17.86683729 7.92751122 13.78253365 6 8 C5.34 8 4.68 8 4 8 C0 2.58823529 0 2.58823529 0 0 Z " fill="#FCB36A" transform="translate(538,157)"/>
<path d="M0 0 C-1.54892754 4.1367699 -4.26599342 6.03366177 -7.75 8.625 C-8.77609375 9.40101563 -9.8021875 10.17703125 -10.859375 10.9765625 C-13.88802838 12.92785908 -16.54509518 14.03800555 -20 15 C-16.3429012 11.19195153 -12.50430058 7.89187757 -8.3125 4.6875 C-7.73177734 4.23310547 -7.15105469 3.77871094 -6.55273438 3.31054688 C-2.2465343 0 -2.2465343 0 0 0 Z " fill="#FE7246" transform="translate(287,302)"/>
<path d="M0 0 C0.33 0 0.66 0 1 0 C1 12.87 1 25.74 1 39 C0.67 39 0.34 39 0 39 C-0.02505615 38.13721436 -0.0501123 37.27442871 -0.07592773 36.38549805 C-0.17111385 33.18176231 -0.27034444 29.97818463 -0.37231445 26.7746582 C-0.41560218 25.38864017 -0.45728164 24.00257094 -0.49731445 22.61645508 C-0.55516584 20.62308202 -0.61929776 18.62989435 -0.68359375 16.63671875 C-0.72025146 15.43748779 -0.75690918 14.23825684 -0.79467773 13.00268555 C-0.87733025 9.95005651 -0.87733025 9.95005651 -2 7 C-1.40206327 4.64811553 -0.74118205 2.31074405 0 0 Z " fill="#FD4923" transform="translate(106,553)"/>
<path d="M0 0 C0.66 0.33 1.32 0.66 2 1 C1.566875 2.86205078 1.566875 2.86205078 1.125 4.76171875 C0.74971715 6.40358121 0.37473282 8.04551192 0 9.6875 C-0.19078125 10.50412109 -0.3815625 11.32074219 -0.578125 12.16210938 C-1.48733916 16.17239326 -2.27000098 19.85717252 -2 24 C-2.99 24.33 -3.98 24.66 -5 25 C-5.32720652 19.87376446 -4.54816803 16.16699347 -2.80078125 11.35546875 C-1.53908994 7.64424991 -0.77129525 3.83832812 0 0 Z " fill="#FCB774" transform="translate(579,324)"/>
<path d="M0 0 C0.88945312 0.33386719 1.77890625 0.66773437 2.6953125 1.01171875 C4.875 2.3125 4.875 2.3125 5.6796875 4.45703125 C5.74414062 5.06933594 5.80859375 5.68164062 5.875 6.3125 C3.565 5.6525 1.255 4.9925 -1.125 4.3125 C-1.125 3.6525 -1.125 2.9925 -1.125 2.3125 C-2.300625 2.126875 -2.300625 2.126875 -3.5 1.9375 C-6.125 1.3125 -6.125 1.3125 -8.125 -0.6875 C-4.49764016 -1.89661995 -3.4856151 -1.36680825 0 0 Z " fill="#FDA967" transform="translate(469.125,102.6875)"/>
<path d="M0 0 C5.97897503 -0.74737188 9.32379721 1.6768102 14 5 C13.01 6.485 13.01 6.485 12 8 C9.99743426 6.85865673 7.99800203 5.71181367 6 4.5625 C4.88625 3.92441406 3.7725 3.28632812 2.625 2.62890625 C1.75875 2.09136719 0.8925 1.55382812 0 1 C0 0.67 0 0.34 0 0 Z " fill="#FCB164" transform="translate(476,109)"/>
<path d="M0 0 C0.33 0 0.66 0 1 0 C1.19600577 2.22843488 1.38146569 4.45779893 1.5625 6.6875 C1.66691406 7.92886719 1.77132812 9.17023437 1.87890625 10.44921875 C1.98493841 13.55835533 1.77228525 16.00810972 1 19 C0.34 18.67 -0.32 18.34 -1 18 C-1.02684312 15.18743719 -1.04676188 12.37512759 -1.0625 9.5625 C-1.07087891 8.76005859 -1.07925781 7.95761719 -1.08789062 7.13085938 C-1.0965143 5.08704779 -1.0522815 3.04316098 -1 1 C-0.67 0.67 -0.34 0.34 0 0 Z " fill="#FD6332" transform="translate(105,539)"/>
<path d="M0 0 C0.99 0.33 1.98 0.66 3 1 C2.34 3.97 1.68 6.94 1 10 C-0.32 10.33 -1.64 10.66 -3 11 C-2.88590407 9.54077307 -2.75834456 8.08259402 -2.625 6.625 C-2.55539063 5.81289062 -2.48578125 5.00078125 -2.4140625 4.1640625 C-2 2 -2 2 0 0 Z " fill="#FD7145" transform="translate(107,83)"/>
<path d="M0 0 C3.43060766 3.43060766 2.96785581 8.31980547 3 13 C2.57116809 15.5296751 1.91143597 17.58737537 1 20 C0.09761253 17.29283758 -0.11851302 15.76223232 -0.09765625 12.98828125 C-0.09443359 12.23095703 -0.09121094 11.47363281 -0.08789062 10.69335938 C-0.07951172 9.90767578 -0.07113281 9.12199219 -0.0625 8.3125 C-0.05798828 7.51521484 -0.05347656 6.71792969 -0.04882812 5.89648438 C-0.0370585 3.93095743 -0.01912348 1.96546915 0 0 Z " fill="#FD7333" transform="translate(104,603)"/>
<path d="M0 0 C0.66 0.33 1.32 0.66 2 1 C-1.43361902 4.63559661 -4.7973607 7.36113346 -9 10 C-9.66 9.67 -10.32 9.34 -11 9 C-7.37 6.03 -3.74 3.06 0 0 Z " fill="#FE6A40" transform="translate(231,343)"/>
<path d="M0 0 C3.67420866 0.30618405 4.78135513 0.75771784 7.3125 3.5625 C8.1478125 4.7690625 8.1478125 4.7690625 9 6 C8.01 6.495 8.01 6.495 7 7 C5.83040013 6.02433888 4.66438823 5.044375 3.5 4.0625 C2.8503125 3.51722656 2.200625 2.97195312 1.53125 2.41015625 C1.0259375 1.94480469 0.520625 1.47945312 0 1 C0 0.67 0 0.34 0 0 Z " fill="#FCAC61" transform="translate(522,141)"/>
<path d="M0 0 C1.60568666 0.28317926 3.20952047 0.57687791 4.8125 0.875 C6.15248047 1.11863281 6.15248047 1.11863281 7.51953125 1.3671875 C10 2 10 2 13 4 C9.61725734 5.12758089 8.23221777 4.81750262 4.8125 4.0625 C3.91144531 3.86785156 3.01039063 3.67320313 2.08203125 3.47265625 C1.39496094 3.31667969 0.70789063 3.16070312 0 3 C0 2.01 0 1.02 0 0 Z " fill="#FC9B57" transform="translate(431,90)"/>
<path d="M0 0 C0.99 0 1.98 0 3 0 C2.67 3.63 2.34 7.26 2 11 C1.34 10.67 0.68 10.34 0 10 C0 6.7 0 3.4 0 0 Z " fill="#FDB774" transform="translate(582,261)"/>
<path d="M0 0 C-0.33 0.99 -0.66 1.98 -1 3 C-4.3 2.34 -7.6 1.68 -11 1 C-6.46780033 -1.26609984 -4.82227075 -0.92735976 0 0 Z " fill="#FDA468" transform="translate(430,89)"/>
<path d="M0 0 C0.66 0.33 1.32 0.66 2 1 C-2.18461538 6.78461538 -2.18461538 6.78461538 -6.3125 7.875 C-7.6428125 7.936875 -7.6428125 7.936875 -9 8 C-6.14723863 5.06799526 -3.34920216 2.35684596 0 0 Z " fill="#FE7243" transform="translate(325,272)"/>
<path d="M0 0 C6.625 -0.25 6.625 -0.25 10 2 C6.59437148 2.77842938 3.49234244 3.09978121 0 3 C0 2.01 0 1.02 0 0 Z " fill="#FE7335" transform="translate(354,487)"/>
<path d="M0 0 C-1.0625 1.5 -1.0625 1.5 -3 3 C-6.6875 3.1875 -6.6875 3.1875 -10 3 C-10.33 2.34 -10.66 1.68 -11 1 C-7.26562152 0.12132271 -3.83225427 -0.08912219 0 0 Z " fill="#FDA963" transform="translate(404,84)"/>
<path d="M0 0 C0.66 0.33 1.32 0.66 2 1 C0.07423885 3.43929746 -1.80090595 5.80090595 -4 8 C-4.66 7.34 -5.32 6.68 -6 6 C-2.25 1.125 -2.25 1.125 0 0 Z " fill="#FC9A60" transform="translate(524,428)"/>
<path d="M0 0 C2.91517292 1.07401108 4.77810176 1.77810176 7 4 C6.67 4.99 6.34 5.98 6 7 C4.02 4.69 2.04 2.38 0 0 Z " fill="#FBAE68" transform="translate(530,149)"/>
<path d="M0 0 C5.53846154 -0.36923077 5.53846154 -0.36923077 7.875 1.5 C8.24625 1.995 8.6175 2.49 9 3 C3.46153846 3.36923077 3.46153846 3.36923077 1.125 1.5 C0.75375 1.005 0.3825 0.51 0 0 Z " fill="#FEA366" transform="translate(476,109)"/>
<path d="M0 0 C0.99 0 1.98 0 3 0 C2.67 0.66 2.34 1.32 2 2 C1.34 1.34 0.68 0.68 0 0 Z " fill="#FFBF3F" transform="translate(399,489)"/>
<path d="M0 0 C3 1 3 1 3 1 Z " fill="#FFD42A" transform="translate(407,488)"/>
<path d="M0 0 C3 1 3 1 3 1 Z " fill="#FF8D5B" transform="translate(430,484)"/>
<path d="M0 0 C0.66 0 1.32 0 2 0 C1.67 0.66 1.34 1.32 1 2 C0.67 1.34 0.34 0.68 0 0 Z " fill="#FFE21C" transform="translate(520,135)"/>
<path d="" fill="#000000" transform="translate(0,0)"/>
<path d="M0 0 C2 1 2 1 2 1 Z " fill="#3F3F3F" transform="translate(518,706)"/>
<path d="" fill="#000000" transform="translate(0,0)"/>
<path d="M0 0 C2 1 2 1 2 1 Z " fill="#000000" transform="translate(660,696)"/>
<path d="" fill="#000000" transform="translate(0,0)"/>
<path d="M0 0 C2 1 2 1 2 1 Z " fill="#000000" transform="translate(612,682)"/>
<path d="M0 0 C2 1 2 1 2 1 Z " fill="#000000" transform="translate(660,680)"/>
<path d="" fill="#000000" transform="translate(0,0)"/>
<path d="M0 0 C2 1 2 1 2 1 Z " fill="#3F3F3F" transform="translate(518,674)"/>
<path d="M0 0 C2 1 2 1 2 1 Z " fill="#3F3F3F" transform="translate(518,658)"/>
<path d="" fill="#BF3F3F" transform="translate(0,0)"/>
<path d="M0 0 C2 1 2 1 2 1 Z " fill="#000000" transform="translate(660,648)"/>
<path d="" fill="#3F3F3F" transform="translate(0,0)"/>
<path d="M0 0 C2 1 2 1 2 1 Z " fill="#000000" transform="translate(660,600)"/>
<path d="M0 0 C2 1 2 1 2 1 Z " fill="#7F0000" transform="translate(660,584)"/>
<path d="M0 0 C2 1 2 1 2 1 Z " fill="#BF3F3F" transform="translate(518,570)"/>
<path d="M0 0 C2 1 2 1 2 1 Z " fill="#FF0000" transform="translate(660,568)"/>
<path d="M0 0 C2 1 2 1 2 1 Z " fill="#BF3F3F" transform="translate(518,554)"/>
<path d="" fill="#FF3F3F" transform="translate(0,0)"/>
<path d="M0 0 C2 1 2 1 2 1 Z " fill="#7F7F7F" transform="translate(660,552)"/>
<path d="" fill="#FF0000" transform="translate(0,0)"/>
<path d="M0 0 C2 1 2 1 2 1 Z " fill="#FF0000" transform="translate(660,544)"/>
<path d="M0 0 C2 1 2 1 2 1 Z " fill="#BFBF3F" transform="translate(518,522)"/>
<path d="M0 0 C2 1 2 1 2 1 Z " fill="#FF0000" transform="translate(660,520)"/>
<path d="M0 0 C2 1 2 1 2 1 Z " fill="#FF0000" transform="translate(660,512)"/>
<path d="M0 0 C2 1 2 1 2 1 Z " fill="#FF7F00" transform="translate(660,496)"/>
<path d="M0 0 C2 1 2 1 2 1 Z " fill="#FFFF00" transform="translate(291,491)"/>
<path d="M0 0 C2 1 2 1 2 1 Z " fill="#FF946A" transform="translate(456,476)"/>
<path d="M0 0 C2 1 2 1 2 1 Z " fill="#FFFF00" transform="translate(660,472)"/>
<path d="M0 0 C2 1 2 1 2 1 Z " fill="#FFFF00" transform="translate(660,464)"/>
<path d="M0 0 C2 1 2 1 2 1 Z " fill="#FFFF00" transform="translate(518,442)"/>
<path d="" fill="#BFBF3F" transform="translate(0,0)"/>
<path d="M0 0 C2 1 2 1 2 1 Z " fill="#FFFF00" transform="translate(660,416)"/>
<path d="M0 0 C2 1 2 1 2 1 Z " fill="#FFFF00" transform="translate(660,408)"/>
<path d="M0 0 C2 1 2 1 2 1 Z " fill="#FFFF00" transform="translate(660,384)"/>
<path d="" fill="#FFFF00" transform="translate(0,0)"/>
<path d="" fill="#FF946A" transform="translate(0,0)"/>
<path d="M0 0 C2 1 2 1 2 1 Z " fill="#FFFF00" transform="translate(660,240)"/>
<path d="" fill="#FFFF00" transform="translate(0,0)"/>
<path d="M0 0 C2 1 2 1 2 1 Z " fill="#FFFF00" transform="translate(660,208)"/>
<path d="M0 0 C2 1 2 1 2 1 Z " fill="#FFFF00" transform="translate(614,203)"/>
<path d="" fill="#FFBF3F" transform="translate(0,0)"/>
<path d="M0 0 C2 1 2 1 2 1 Z " fill="#FFFF00" transform="translate(660,144)"/>
<path d="" fill="#FFFF00" transform="translate(0,0)"/>
<path d="M0 0 C2 1 2 1 2 1 Z " fill="#FFFF00" transform="translate(496,117)"/>
<path d="M0 0 C2 1 2 1 2 1 Z " fill="#FFFF00" transform="translate(660,104)"/>
<path d="M0 0 C2 1 2 1 2 1 Z " fill="#FFFF00" transform="translate(660,96)"/>
<path d="M0 0 C2 1 2 1 2 1 Z " fill="#FFFF00" transform="translate(212,80)"/>
<path d="M0 0 C2 1 2 1 2 1 Z " fill="#FFFF00" transform="translate(660,40)"/>
<path d="M0 0 C2 1 2 1 2 1 Z " fill="#FFFF00" transform="translate(660,32)"/>
<path d="M0 0 C2 1 2 1 2 1 Z " fill="#FFFF00" transform="translate(660,16)"/>
<path d="" fill="#FFFF00" transform="translate(0,0)"/>
<path d="M0 0 C2 1 2 1 2 1 Z " fill="#FFFF00" transform="translate(660,0)"/>
<path d="" fill="#000000" transform="translate(0,0)"/>
<path d="" fill="#000000" transform="translate(0,0)"/>
<path d="" fill="#7F7F7F" transform="translate(0,0)"/>
<path d="" fill="#7F7F7F" transform="translate(0,0)"/>
<path d="" fill="#FF0000" transform="translate(0,0)"/>
<path d="" fill="#000000" transform="translate(0,0)"/>
<path d="" fill="#7F7F7F" transform="translate(0,0)"/>
<path d="" fill="#7F7F7F" transform="translate(0,0)"/>
<path d="" fill="#000000" transform="translate(0,0)"/>
<path d="" fill="#000000" transform="translate(0,0)"/>
<path d="" fill="#000000" transform="translate(0,0)"/>
<path d="" fill="#7F7F7F" transform="translate(0,0)"/>
<path d="" fill="#000000" transform="translate(0,0)"/>
<path d="" fill="#FF0000" transform="translate(0,0)"/>
<path d="" fill="#000000" transform="translate(0,0)"/>
<path d="" fill="#000000" transform="translate(0,0)"/>
<path d="" fill="#7F7F7F" transform="translate(0,0)"/>
<path d="" fill="#000000" transform="translate(0,0)"/>
<path d="" fill="#000000" transform="translate(0,0)"/>
<path d="" fill="#FF0000" transform="translate(0,0)"/>
<path d="" fill="#AA5555" transform="translate(0,0)"/>
<path d="" fill="#000000" transform="translate(0,0)"/>
<path d="" fill="#FF0000" transform="translate(0,0)"/>
<path d="" fill="#000000" transform="translate(0,0)"/>
<path d="" fill="#000000" transform="translate(0,0)"/>
<path d="" fill="#FF0000" transform="translate(0,0)"/>
<path d="" fill="#000000" transform="translate(0,0)"/>
<path d="" fill="#000000" transform="translate(0,0)"/>
<path d="" fill="#7F7F7F" transform="translate(0,0)"/>
<path d="" fill="#000000" transform="translate(0,0)"/>
<path d="" fill="#AA5555" transform="translate(0,0)"/>
<path d="" fill="#FF0000" transform="translate(0,0)"/>
<path d="" fill="#000000" transform="translate(0,0)"/>
<path d="" fill="#7F7F7F" transform="translate(0,0)"/>
<path d="" fill="#000000" transform="translate(0,0)"/>
<path d="" fill="#000000" transform="translate(0,0)"/>
<path d="" fill="#000000" transform="translate(0,0)"/>
<path d="" fill="#000000" transform="translate(0,0)"/>
<path d="" fill="#000000" transform="translate(0,0)"/>
<path d="" fill="#FF0000" transform="translate(0,0)"/>
<path d="" fill="#FF0000" transform="translate(0,0)"/>
<path d="" fill="#000000" transform="translate(0,0)"/>
<path d="" fill="#000000" transform="translate(0,0)"/>
<path d="" fill="#000000" transform="translate(0,0)"/>
<path d="" fill="#555555" transform="translate(0,0)"/>
<path d="" fill="#FF0000" transform="translate(0,0)"/>
<path d="" fill="#7F7F7F" transform="translate(0,0)"/>
<path d="" fill="#FF0000" transform="translate(0,0)"/>
<path d="" fill="#000000" transform="translate(0,0)"/>
<path d="" fill="#000000" transform="translate(0,0)"/>
<path d="" fill="#000000" transform="translate(0,0)"/>
<path d="" fill="#7F7F7F" transform="translate(0,0)"/>
<path d="" fill="#000000" transform="translate(0,0)"/>
<path d="" fill="#000000" transform="translate(0,0)"/>
<path d="" fill="#000000" transform="translate(0,0)"/>
<path d="" fill="#FF0000" transform="translate(0,0)"/>
<path d="" fill="#BF7F7F" transform="translate(0,0)"/>
<path d="" fill="#000000" transform="translate(0,0)"/>
<path d="" fill="#000000" transform="translate(0,0)"/>
<path d="" fill="#000000" transform="translate(0,0)"/>
<path d="" fill="#7F7F7F" transform="translate(0,0)"/>
<path d="" fill="#000000" transform="translate(0,0)"/>
<path d="" fill="#000000" transform="translate(0,0)"/>
<path d="" fill="#000000" transform="translate(0,0)"/>
<path d="" fill="#7F7F7F" transform="translate(0,0)"/>
<path d="" fill="#7F7F7F" transform="translate(0,0)"/>
<path d="" fill="#000000" transform="translate(0,0)"/>
<path d="" fill="#000000" transform="translate(0,0)"/>
<path d="" fill="#000000" transform="translate(0,0)"/>
<path d="" fill="#000000" transform="translate(0,0)"/>
<path d="" fill="#000000" transform="translate(0,0)"/>
<path d="" fill="#000000" transform="translate(0,0)"/>
<path d="" fill="#FF0000" transform="translate(0,0)"/>
<path d="" fill="#000000" transform="translate(0,0)"/>
<path d="" fill="#000000" transform="translate(0,0)"/>
<path d="" fill="#000000" transform="translate(0,0)"/>
<path d="" fill="#000000" transform="translate(0,0)"/>
<path d="" fill="#7F7F7F" transform="translate(0,0)"/>
<path d="" fill="#000000" transform="translate(0,0)"/>
<path d="" fill="#000000" transform="translate(0,0)"/>
<path d="" fill="#7F7F7F" transform="translate(0,0)"/>
<path d="" fill="#FF0000" transform="translate(0,0)"/>
<path d="" fill="#7F7F7F" transform="translate(0,0)"/>
<path d="" fill="#000000" transform="translate(0,0)"/>
<path d="" fill="#7F7F7F" transform="translate(0,0)"/>
<path d="" fill="#000000" transform="translate(0,0)"/>
<path d="" fill="#000000" transform="translate(0,0)"/>
<path d="" fill="#FF0000" transform="translate(0,0)"/>
<path d="" fill="#FF7F7F" transform="translate(0,0)"/>
<path d="" fill="#FF0000" transform="translate(0,0)"/>
<path d="" fill="#000000" transform="translate(0,0)"/>
<path d="" fill="#000000" transform="translate(0,0)"/>
<path d="" fill="#D47F55" transform="translate(0,0)"/>
<path d="" fill="#000000" transform="translate(0,0)"/>
<path d="" fill="#FF0000" transform="translate(0,0)"/>
<path d="" fill="#000000" transform="translate(0,0)"/>
<path d="" fill="#000000" transform="translate(0,0)"/>
<path d="" fill="#000000" transform="translate(0,0)"/>
<path d="" fill="#000000" transform="translate(0,0)"/>
<path d="" fill="#000000" transform="translate(0,0)"/>
<path d="" fill="#000000" transform="translate(0,0)"/>
<path d="" fill="#000000" transform="translate(0,0)"/>
<path d="" fill="#7F7F7F" transform="translate(0,0)"/>
<path d="" fill="#FF0000" transform="translate(0,0)"/>
<path d="" fill="#000000" transform="translate(0,0)"/>
<path d="" fill="#000000" transform="translate(0,0)"/>
<path d="" fill="#000000" transform="translate(0,0)"/>
<path d="" fill="#000000" transform="translate(0,0)"/>
<path d="" fill="#FF0000" transform="translate(0,0)"/>
<path d="" fill="#AA5555" transform="translate(0,0)"/>
<path d="" fill="#000000" transform="translate(0,0)"/>
<path d="" fill="#000000" transform="translate(0,0)"/>
<path d="" fill="#FF0000" transform="translate(0,0)"/>
<path d="" fill="#000000" transform="translate(0,0)"/>
<path d="" fill="#7F7F7F" transform="translate(0,0)"/>
<path d="" fill="#FF0000" transform="translate(0,0)"/>
<path d="" fill="#7F7F7F" transform="translate(0,0)"/>
<path d="" fill="#FF7F7F" transform="translate(0,0)"/>
<path d="" fill="#000000" transform="translate(0,0)"/>
<path d="" fill="#000000" transform="translate(0,0)"/>
<path d="" fill="#000000" transform="translate(0,0)"/>
<path d="" fill="#FF0000" transform="translate(0,0)"/>
<path d="" fill="#FF0000" transform="translate(0,0)"/>
<path d="" fill="#7F7F7F" transform="translate(0,0)"/>
<path d="" fill="#FF0000" transform="translate(0,0)"/>
<path d="" fill="#000000" transform="translate(0,0)"/>
<path d="" fill="#7F7F7F" transform="translate(0,0)"/>
<path d="" fill="#FF0000" transform="translate(0,0)"/>
<path d="" fill="#000000" transform="translate(0,0)"/>
<path d="" fill="#000000" transform="translate(0,0)"/>
<path d="" fill="#FF0000" transform="translate(0,0)"/>
<path d="" fill="#FF0000" transform="translate(0,0)"/>
<path d="" fill="#FF0000" transform="translate(0,0)"/>
<path d="" fill="#FF0000" transform="translate(0,0)"/>
<path d="" fill="#7F7F7F" transform="translate(0,0)"/>
<path d="" fill="#FF0000" transform="translate(0,0)"/>
<path d="" fill="#7F7F7F" transform="translate(0,0)"/>
<path d="" fill="#FF0000" transform="translate(0,0)"/>
<path d="" fill="#AA5555" transform="translate(0,0)"/>
<path d="" fill="#7F7F7F" transform="translate(0,0)"/>
<path d="" fill="#7F7F7F" transform="translate(0,0)"/>
<path d="" fill="#FF0000" transform="translate(0,0)"/>
<path d="" fill="#FF0000" transform="translate(0,0)"/>
<path d="" fill="#FF0000" transform="translate(0,0)"/>
<path d="" fill="#FF0000" transform="translate(0,0)"/>
<path d="" fill="#FF0000" transform="translate(0,0)"/>
<path d="" fill="#FF0000" transform="translate(0,0)"/>
<path d="" fill="#7F7F7F" transform="translate(0,0)"/>
<path d="" fill="#FF0000" transform="translate(0,0)"/>
<path d="" fill="#AA5555" transform="translate(0,0)"/>
<path d="" fill="#7F7F7F" transform="translate(0,0)"/>
<path d="" fill="#FF0000" transform="translate(0,0)"/>
<path d="" fill="#FF0000" transform="translate(0,0)"/>
<path d="" fill="#FF0000" transform="translate(0,0)"/>
<path d="" fill="#FF0000" transform="translate(0,0)"/>
<path d="" fill="#7F7F7F" transform="translate(0,0)"/>
<path d="" fill="#FF0000" transform="translate(0,0)"/>
<path d="" fill="#7F7F7F" transform="translate(0,0)"/>
<path d="" fill="#7F7F7F" transform="translate(0,0)"/>
<path d="" fill="#FF0000" transform="translate(0,0)"/>
<path d="" fill="#AA5555" transform="translate(0,0)"/>
<path d="" fill="#000000" transform="translate(0,0)"/>
<path d="" fill="#7F7F7F" transform="translate(0,0)"/>
<path d="" fill="#FF0000" transform="translate(0,0)"/>
<path d="" fill="#FF0000" transform="translate(0,0)"/>
<path d="" fill="#FF0000" transform="translate(0,0)"/>
<path d="" fill="#FF0000" transform="translate(0,0)"/>
<path d="" fill="#000000" transform="translate(0,0)"/>
<path d="" fill="#FF0000" transform="translate(0,0)"/>
<path d="" fill="#FF0000" transform="translate(0,0)"/>
<path d="" fill="#7F7F7F" transform="translate(0,0)"/>
<path d="" fill="#FF0000" transform="translate(0,0)"/>
<path d="" fill="#FF7F7F" transform="translate(0,0)"/>
<path d="" fill="#FF0000" transform="translate(0,0)"/>
<path d="" fill="#FF0000" transform="translate(0,0)"/>
<path d="" fill="#7F7F7F" transform="translate(0,0)"/>
<path d="" fill="#FF0000" transform="translate(0,0)"/>
<path d="" fill="#FF0000" transform="translate(0,0)"/>
<path d="" fill="#FF0000" transform="translate(0,0)"/>
<path d="" fill="#FF0000" transform="translate(0,0)"/>
<path d="" fill="#FF0000" transform="translate(0,0)"/>
<path d="" fill="#FF0000" transform="translate(0,0)"/>
<path d="" fill="#FF0000" transform="translate(0,0)"/>
<path d="" fill="#FF0000" transform="translate(0,0)"/>
<path d="" fill="#FF0000" transform="translate(0,0)"/>
<path d="" fill="#FF0000" transform="translate(0,0)"/>
<path d="" fill="#FF0000" transform="translate(0,0)"/>
<path d="" fill="#FF0000" transform="translate(0,0)"/>
<path d="" fill="#FF0000" transform="translate(0,0)"/>
<path d="" fill="#FF0000" transform="translate(0,0)"/>
<path d="" fill="#FF0000" transform="translate(0,0)"/>
<path d="" fill="#FF0000" transform="translate(0,0)"/>
<path d="" fill="#FF0000" transform="translate(0,0)"/>
<path d="" fill="#FF0000" transform="translate(0,0)"/>
<path d="" fill="#FF0000" transform="translate(0,0)"/>
<path d="" fill="#FF0000" transform="translate(0,0)"/>
<path d="" fill="#FF0000" transform="translate(0,0)"/>
<path d="" fill="#FF0000" transform="translate(0,0)"/>
<path d="" fill="#FF0000" transform="translate(0,0)"/>
<path d="" fill="#FF0000" transform="translate(0,0)"/>
<path d="" fill="#FF0000" transform="translate(0,0)"/>
<path d="" fill="#FF0000" transform="translate(0,0)"/>
<path d="" fill="#FF0000" transform="translate(0,0)"/>
<path d="" fill="#7F7F7F" transform="translate(0,0)"/>
<path d="" fill="#FF7F7F" transform="translate(0,0)"/>
<path d="" fill="#FF0000" transform="translate(0,0)"/>
<path d="" fill="#FF0000" transform="translate(0,0)"/>
<path d="" fill="#FF0000" transform="translate(0,0)"/>
<path d="" fill="#FF0000" transform="translate(0,0)"/>
<path d="" fill="#FF0000" transform="translate(0,0)"/>
<path d="" fill="#FF0000" transform="translate(0,0)"/>
<path d="" fill="#FF0000" transform="translate(0,0)"/>
<path d="" fill="#FF0000" transform="translate(0,0)"/>
<path d="" fill="#FF0000" transform="translate(0,0)"/>
<path d="" fill="#7F7F7F" transform="translate(0,0)"/>
<path d="" fill="#FF0000" transform="translate(0,0)"/>
<path d="" fill="#7F7F7F" transform="translate(0,0)"/>
<path d="" fill="#FF0000" transform="translate(0,0)"/>
<path d="" fill="#FF0000" transform="translate(0,0)"/>
<path d="" fill="#FF0000" transform="translate(0,0)"/>
<path d="" fill="#FF0000" transform="translate(0,0)"/>
<path d="" fill="#FF0000" transform="translate(0,0)"/>
<path d="" fill="#FF0000" transform="translate(0,0)"/>
<path d="" fill="#7F7F7F" transform="translate(0,0)"/>
<path d="" fill="#FF7F7F" transform="translate(0,0)"/>
<path d="" fill="#FF0000" transform="translate(0,0)"/>
<path d="" fill="#AA5555" transform="translate(0,0)"/>
<path d="" fill="#FF0000" transform="translate(0,0)"/>
<path d="" fill="#FF0000" transform="translate(0,0)"/>
<path d="" fill="#FF0000" transform="translate(0,0)"/>
<path d="" fill="#FF0000" transform="translate(0,0)"/>
<path d="" fill="#7F7F7F" transform="translate(0,0)"/>
<path d="" fill="#AA5555" transform="translate(0,0)"/>
<path d="" fill="#FF0000" transform="translate(0,0)"/>
<path d="" fill="#FF0000" transform="translate(0,0)"/>
<path d="" fill="#7F7F7F" transform="translate(0,0)"/>
<path d="" fill="#FF0000" transform="translate(0,0)"/>
<path d="" fill="#FF0000" transform="translate(0,0)"/>
<path d="" fill="#FF0000" transform="translate(0,0)"/>
<path d="" fill="#FFFF00" transform="translate(0,0)"/>
<path d="" fill="#FF0000" transform="translate(0,0)"/>
<path d="" fill="#FF0000" transform="translate(0,0)"/>
<path d="" fill="#FF0000" transform="translate(0,0)"/>
<path d="" fill="#FF0000" transform="translate(0,0)"/>
<path d="" fill="#7F7F7F" transform="translate(0,0)"/>
<path d="" fill="#FF0000" transform="translate(0,0)"/>
<path d="" fill="#FF0000" transform="translate(0,0)"/>
<path d="" fill="#7F7F7F" transform="translate(0,0)"/>
<path d="" fill="#FF0000" transform="translate(0,0)"/>
<path d="" fill="#FF7F7F" transform="translate(0,0)"/>
<path d="" fill="#FFFF00" transform="translate(0,0)"/>
<path d="" fill="#FF0000" transform="translate(0,0)"/>
<path d="" fill="#FFFF00" transform="translate(0,0)"/>
<path d="" fill="#7F7F7F" transform="translate(0,0)"/>
<path d="" fill="#FFFF00" transform="translate(0,0)"/>
<path d="" fill="#7F7F7F" transform="translate(0,0)"/>
<path d="" fill="#AA5555" transform="translate(0,0)"/>
<path d="" fill="#FF0000" transform="translate(0,0)"/>
<path d="" fill="#FF0000" transform="translate(0,0)"/>
<path d="" fill="#FF0000" transform="translate(0,0)"/>
<path d="" fill="#FFFF00" transform="translate(0,0)"/>
<path d="" fill="#FFFF00" transform="translate(0,0)"/>
<path d="" fill="#FF7F7F" transform="translate(0,0)"/>
<path d="" fill="#FF0000" transform="translate(0,0)"/>
<path d="" fill="#FFFF00" transform="translate(0,0)"/>
<path d="" fill="#FFFF00" transform="translate(0,0)"/>
<path d="" fill="#FFFF00" transform="translate(0,0)"/>
<path d="" fill="#FF7F7F" transform="translate(0,0)"/>
<path d="" fill="#FFFF00" transform="translate(0,0)"/>
<path d="" fill="#FFFF00" transform="translate(0,0)"/>
<path d="" fill="#FF7F7F" transform="translate(0,0)"/>
<path d="" fill="#FFFF00" transform="translate(0,0)"/>
<path d="" fill="#FFFF00" transform="translate(0,0)"/>
<path d="" fill="#FF7F7F" transform="translate(0,0)"/>
<path d="" fill="#FFFF00" transform="translate(0,0)"/>
<path d="" fill="#FF7F7F" transform="translate(0,0)"/>
<path d="" fill="#FFFF00" transform="translate(0,0)"/>
<path d="" fill="#FFFF00" transform="translate(0,0)"/>
<path d="" fill="#FFFF00" transform="translate(0,0)"/>
<path d="" fill="#FFFF00" transform="translate(0,0)"/>
<path d="" fill="#FFFF00" transform="translate(0,0)"/>
<path d="" fill="#FFFF00" transform="translate(0,0)"/>
<path d="" fill="#FFAA55" transform="translate(0,0)"/>
<path d="" fill="#FFAA55" transform="translate(0,0)"/>
<path d="" fill="#FF7F3F" transform="translate(0,0)"/>
<path d="" fill="#FFFF00" transform="translate(0,0)"/>
<path d="" fill="#FF7F7F" transform="translate(0,0)"/>
<path d="" fill="#FFFF00" transform="translate(0,0)"/>
<path d="" fill="#FFFF00" transform="translate(0,0)"/>
<path d="" fill="#FF0000" transform="translate(0,0)"/>
<path d="" fill="#FFFF00" transform="translate(0,0)"/>
<path d="" fill="#FFFF00" transform="translate(0,0)"/>
<path d="" fill="#FFFF00" transform="translate(0,0)"/>
<path d="" fill="#FFFF00" transform="translate(0,0)"/>
<path d="" fill="#FFFF00" transform="translate(0,0)"/>
<path d="" fill="#FF7F7F" transform="translate(0,0)"/>
<path d="" fill="#AAAA55" transform="translate(0,0)"/>
<path d="" fill="#FFAA55" transform="translate(0,0)"/>
<path d="" fill="#FFFF00" transform="translate(0,0)"/>
<path d="" fill="#FF7F7F" transform="translate(0,0)"/>
<path d="" fill="#FFFF00" transform="translate(0,0)"/>
<path d="" fill="#FFFF00" transform="translate(0,0)"/>
<path d="" fill="#FFFF00" transform="translate(0,0)"/>
<path d="" fill="#FF0000" transform="translate(0,0)"/>
<path d="" fill="#FFFF00" transform="translate(0,0)"/>
<path d="" fill="#FF0000" transform="translate(0,0)"/>
<path d="" fill="#FFFF00" transform="translate(0,0)"/>
<path d="" fill="#FFFF00" transform="translate(0,0)"/>
<path d="" fill="#FFFF00" transform="translate(0,0)"/>
<path d="" fill="#FFFF00" transform="translate(0,0)"/>
<path d="" fill="#FFFF00" transform="translate(0,0)"/>
<path d="" fill="#FF7F7F" transform="translate(0,0)"/>
<path d="" fill="#FF7F7F" transform="translate(0,0)"/>
<path d="" fill="#FFFF00" transform="translate(0,0)"/>
<path d="" fill="#FFFF00" transform="translate(0,0)"/>
<path d="" fill="#FF0000" transform="translate(0,0)"/>
<path d="" fill="#FFFF00" transform="translate(0,0)"/>
<path d="" fill="#FFFF00" transform="translate(0,0)"/>
<path d="" fill="#FFFF00" transform="translate(0,0)"/>
<path d="" fill="#FF7F7F" transform="translate(0,0)"/>
<path d="" fill="#FFFF00" transform="translate(0,0)"/>
<path d="" fill="#FFFF00" transform="translate(0,0)"/>
<path d="" fill="#FFFF00" transform="translate(0,0)"/>
<path d="" fill="#FF7F7F" transform="translate(0,0)"/>
<path d="" fill="#FFFF00" transform="translate(0,0)"/>
<path d="" fill="#FFFF00" transform="translate(0,0)"/>
<path d="" fill="#FFFF00" transform="translate(0,0)"/>
<path d="" fill="#FF7F7F" transform="translate(0,0)"/>
<path d="" fill="#FFFF00" transform="translate(0,0)"/>
<path d="" fill="#FF7F7F" transform="translate(0,0)"/>
<path d="" fill="#FFFF00" transform="translate(0,0)"/>
<path d="" fill="#FF0000" transform="translate(0,0)"/>
<path d="" fill="#FFAA55" transform="translate(0,0)"/>
<path d="" fill="#FFFF00" transform="translate(0,0)"/>
<path d="" fill="#FF7F7F" transform="translate(0,0)"/>
<path d="" fill="#FFFF00" transform="translate(0,0)"/>
<path d="" fill="#FF7F7F" transform="translate(0,0)"/>
<path d="" fill="#FFFF00" transform="translate(0,0)"/>
<path d="" fill="#FFFF00" transform="translate(0,0)"/>
<path d="" fill="#FFFF00" transform="translate(0,0)"/>
<path d="" fill="#FFFF00" transform="translate(0,0)"/>
<path d="" fill="#FFFF00" transform="translate(0,0)"/>
<path d="" fill="#FFFF00" transform="translate(0,0)"/>
<path d="" fill="#FFFF00" transform="translate(0,0)"/>
<path d="" fill="#AA5555" transform="translate(0,0)"/>
<path d="" fill="#FFFF00" transform="translate(0,0)"/>
<path d="" fill="#FFFF00" transform="translate(0,0)"/>
<path d="" fill="#FF0000" transform="translate(0,0)"/>
<path d="" fill="#FFAA55" transform="translate(0,0)"/>
<path d="" fill="#FF7F7F" transform="translate(0,0)"/>
<path d="" fill="#FFFF00" transform="translate(0,0)"/>
<path d="" fill="#FFFF00" transform="translate(0,0)"/>
<path d="" fill="#FFFF00" transform="translate(0,0)"/>
<path d="" fill="#FFFF00" transform="translate(0,0)"/>
<path d="" fill="#FFAA55" transform="translate(0,0)"/>
<path d="" fill="#AA5555" transform="translate(0,0)"/>
<path d="" fill="#FFFF00" transform="translate(0,0)"/>
<path d="" fill="#FFFF00" transform="translate(0,0)"/>
<path d="" fill="#FFFF00" transform="translate(0,0)"/>
<path d="" fill="#FFFF00" transform="translate(0,0)"/>
<path d="" fill="#FFFF00" transform="translate(0,0)"/>
<path d="" fill="#FFFF00" transform="translate(0,0)"/>
<path d="" fill="#FF7F7F" transform="translate(0,0)"/>
<path d="" fill="#FFFF00" transform="translate(0,0)"/>
<path d="" fill="#FF0000" transform="translate(0,0)"/>
<path d="" fill="#FF0000" transform="translate(0,0)"/>
<path d="" fill="#FFFF00" transform="translate(0,0)"/>
<path d="" fill="#FFFF00" transform="translate(0,0)"/>
<path d="" fill="#FFFF00" transform="translate(0,0)"/>
<path d="" fill="#FFFF00" transform="translate(0,0)"/>
<path d="" fill="#FF0000" transform="translate(0,0)"/>
<path d="" fill="#FFFF00" transform="translate(0,0)"/>
<path d="" fill="#AA5555" transform="translate(0,0)"/>
<path d="" fill="#FFFF00" transform="translate(0,0)"/>
<path d="" fill="#FFFF00" transform="translate(0,0)"/>
<path d="" fill="#FFFF00" transform="translate(0,0)"/>
<path d="" fill="#FF7F7F" transform="translate(0,0)"/>
<path d="" fill="#FFFF00" transform="translate(0,0)"/>
<path d="" fill="#FFFF00" transform="translate(0,0)"/>
<path d="" fill="#FFFF00" transform="translate(0,0)"/>
<path d="" fill="#FFFF00" transform="translate(0,0)"/>
<path d="" fill="#FFFF00" transform="translate(0,0)"/>
<path d="" fill="#FF7F7F" transform="translate(0,0)"/>
<path d="" fill="#FFFF00" transform="translate(0,0)"/>
<path d="" fill="#FFFF00" transform="translate(0,0)"/>
<path d="" fill="#FFFF00" transform="translate(0,0)"/>
<path d="" fill="#FF7F7F" transform="translate(0,0)"/>
<path d="" fill="#FFFF00" transform="translate(0,0)"/>
<path d="" fill="#AA5555" transform="translate(0,0)"/>
<path d="" fill="#FFFF00" transform="translate(0,0)"/>
<path d="" fill="#FFFF00" transform="translate(0,0)"/>
<path d="" fill="#FFFF00" transform="translate(0,0)"/>
<path d="" fill="#FF7F7F" transform="translate(0,0)"/>
<path d="" fill="#FF0000" transform="translate(0,0)"/>
<path d="" fill="#FF7F7F" transform="translate(0,0)"/>
<path d="" fill="#FF7F7F" transform="translate(0,0)"/>
<path d="" fill="#FFFF00" transform="translate(0,0)"/>
<path d="" fill="#FFFF00" transform="translate(0,0)"/>
<path d="" fill="#FFFF00" transform="translate(0,0)"/>
<path d="" fill="#FF0000" transform="translate(0,0)"/>
<path d="" fill="#FFFF00" transform="translate(0,0)"/>
<path d="" fill="#FFFF00" transform="translate(0,0)"/>
<path d="" fill="#FF0000" transform="translate(0,0)"/>
<path d="" fill="#FFFF00" transform="translate(0,0)"/>
<path d="" fill="#FFFF00" transform="translate(0,0)"/>
<path d="" fill="#FFFF00" transform="translate(0,0)"/>
<path d="" fill="#FF7F7F" transform="translate(0,0)"/>
<path d="" fill="#FFFF00" transform="translate(0,0)"/>
<path d="" fill="#FFFF00" transform="translate(0,0)"/>
<path d="" fill="#FFFF00" transform="translate(0,0)"/>
<path d="" fill="#FFFF00" transform="translate(0,0)"/>
<path d="" fill="#FF0000" transform="translate(0,0)"/>
<path d="" fill="#FFFF00" transform="translate(0,0)"/>
<path d="" fill="#FFFF00" transform="translate(0,0)"/>
<path d="" fill="#FFFF00" transform="translate(0,0)"/>
<path d="" fill="#FFFF00" transform="translate(0,0)"/>
<path d="" fill="#FFFF00" transform="translate(0,0)"/>
<path d="" fill="#FF0000" transform="translate(0,0)"/>
<path d="" fill="#FF0000" transform="translate(0,0)"/>
<path d="" fill="#FFFF00" transform="translate(0,0)"/>
<path d="" fill="#FF0000" transform="translate(0,0)"/>
<path d="" fill="#FFFF00" transform="translate(0,0)"/>
<path d="" fill="#FF0000" transform="translate(0,0)"/>
<path d="" fill="#FFFF00" transform="translate(0,0)"/>
<path d="" fill="#FF0000" transform="translate(0,0)"/>
<path d="" fill="#FF7F7F" transform="translate(0,0)"/>
<path d="" fill="#FFFF00" transform="translate(0,0)"/>
<path d="" fill="#FF0000" transform="translate(0,0)"/>
<path d="" fill="#FFFF00" transform="translate(0,0)"/>
<path d="" fill="#FFFF00" transform="translate(0,0)"/>
<path d="" fill="#FFFF00" transform="translate(0,0)"/>
<path d="" fill="#FF7F7F" transform="translate(0,0)"/>
<path d="" fill="#FFFF00" transform="translate(0,0)"/>
<path d="" fill="#FF7F7F" transform="translate(0,0)"/>
<path d="" fill="#FF7F7F" transform="translate(0,0)"/>
<path d="" fill="#FF7F7F" transform="translate(0,0)"/>
<path d="" fill="#FFFF00" transform="translate(0,0)"/>
<path d="" fill="#FF7F7F" transform="translate(0,0)"/>
<path d="" fill="#7F7F7F" transform="translate(0,0)"/>
<path d="" fill="#FFFF00" transform="translate(0,0)"/>
<path d="" fill="#FFFF00" transform="translate(0,0)"/>
<path d="" fill="#FFFF00" transform="translate(0,0)"/>
<path d="" fill="#FF7F7F" transform="translate(0,0)"/>
<path d="" fill="#FFFF00" transform="translate(0,0)"/>
<path d="" fill="#FFFF00" transform="translate(0,0)"/>
<path d="" fill="#AAAA55" transform="translate(0,0)"/>
<path d="" fill="#FFFF00" transform="translate(0,0)"/>
<path d="" fill="#FFFF00" transform="translate(0,0)"/>
<path d="" fill="#FFFF00" transform="translate(0,0)"/>
<path d="" fill="#FF7F7F" transform="translate(0,0)"/>
<path d="" fill="#FFFF00" transform="translate(0,0)"/>
<path d="" fill="#FFFF00" transform="translate(0,0)"/>
<path d="" fill="#FFFF00" transform="translate(0,0)"/>
<path d="" fill="#FFFF00" transform="translate(0,0)"/>
<path d="" fill="#AA5555" transform="translate(0,0)"/>
<path d="" fill="#FFFF00" transform="translate(0,0)"/>
<path d="" fill="#AAAA55" transform="translate(0,0)"/>
<path d="" fill="#FFFF00" transform="translate(0,0)"/>
<path d="" fill="#FFFF00" transform="translate(0,0)"/>
<path d="" fill="#FF0000" transform="translate(0,0)"/>
<path d="" fill="#FFFF00" transform="translate(0,0)"/>
<path d="" fill="#AAAA55" transform="translate(0,0)"/>
<path d="" fill="#FFFF00" transform="translate(0,0)"/>
<path d="" fill="#FFFF00" transform="translate(0,0)"/>
<path d="" fill="#FF0000" transform="translate(0,0)"/>
<path d="" fill="#FF7F7F" transform="translate(0,0)"/>
<path d="" fill="#AAAA55" transform="translate(0,0)"/>
<path d="" fill="#FFFF00" transform="translate(0,0)"/>
<path d="" fill="#FFFF00" transform="translate(0,0)"/>
<path d="" fill="#FF7F7F" transform="translate(0,0)"/>
<path d="" fill="#AAAA55" transform="translate(0,0)"/>
<path d="" fill="#FFFF00" transform="translate(0,0)"/>
<path d="" fill="#FFFF00" transform="translate(0,0)"/>
<path d="" fill="#FF7F7F" transform="translate(0,0)"/>
<path d="" fill="#FFFF00" transform="translate(0,0)"/>
<path d="" fill="#FF7F7F" transform="translate(0,0)"/>
<path d="" fill="#FFFF00" transform="translate(0,0)"/>
<path d="" fill="#FFFF00" transform="translate(0,0)"/>
<path d="" fill="#FFFF00" transform="translate(0,0)"/>
<path d="" fill="#FFFF00" transform="translate(0,0)"/>
<path d="" fill="#FF7F7F" transform="translate(0,0)"/>
<path d="" fill="#FF7F7F" transform="translate(0,0)"/>
<path d="" fill="#FFFF00" transform="translate(0,0)"/>
<path d="" fill="#FFFF00" transform="translate(0,0)"/>
<path d="" fill="#FFFF00" transform="translate(0,0)"/>
<path d="" fill="#FF7F7F" transform="translate(0,0)"/>
<path d="" fill="#FFFF00" transform="translate(0,0)"/>
<path d="" fill="#FF7F7F" transform="translate(0,0)"/>
<path d="" fill="#FFFF00" transform="translate(0,0)"/>
<path d="" fill="#FFFF00" transform="translate(0,0)"/>
<path d="" fill="#FF7F7F" transform="translate(0,0)"/>
<path d="" fill="#FFFF00" transform="translate(0,0)"/>
<path d="" fill="#FFFF00" transform="translate(0,0)"/>
<path d="" fill="#FF7F7F" transform="translate(0,0)"/>
<path d="" fill="#FFFF00" transform="translate(0,0)"/>
<path d="" fill="#FFFF00" transform="translate(0,0)"/>
<path d="" fill="#FFFF00" transform="translate(0,0)"/>
<path d="" fill="#AAAA55" transform="translate(0,0)"/>
<path d="" fill="#FFFF00" transform="translate(0,0)"/>
<path d="" fill="#FFFF00" transform="translate(0,0)"/>
<path d="" fill="#FFFF00" transform="translate(0,0)"/>
<path d="" fill="#FF7F7F" transform="translate(0,0)"/>
<path d="" fill="#FFFF00" transform="translate(0,0)"/>
<path d="" fill="#FF7F7F" transform="translate(0,0)"/>
<path d="" fill="#FFFF00" transform="translate(0,0)"/>
<path d="" fill="#FFFF00" transform="translate(0,0)"/>
<path d="" fill="#FFFF00" transform="translate(0,0)"/>
<path d="" fill="#FFFF00" transform="translate(0,0)"/>
<path d="" fill="#AAAA55" transform="translate(0,0)"/>
<path d="" fill="#FFFF00" transform="translate(0,0)"/>
<path d="" fill="#FFFF00" transform="translate(0,0)"/>
<path d="" fill="#FFFF00" transform="translate(0,0)"/>
<path d="" fill="#FFFF00" transform="translate(0,0)"/>
<path d="" fill="#FF7F7F" transform="translate(0,0)"/>
<path d="" fill="#FFFF00" transform="translate(0,0)"/>
<path d="" fill="#FFFF00" transform="translate(0,0)"/>
<path d="" fill="#FFFF00" transform="translate(0,0)"/>
<path d="" fill="#FFFF00" transform="translate(0,0)"/>
<path d="" fill="#FF7F7F" transform="translate(0,0)"/>
<path d="" fill="#FFFF00" transform="translate(0,0)"/>
<path d="" fill="#FF7F7F" transform="translate(0,0)"/>
<path d="" fill="#FFFF00" transform="translate(0,0)"/>
<path d="" fill="#FFFF00" transform="translate(0,0)"/>
<path d="" fill="#7F7F7F" transform="translate(0,0)"/>
<path d="" fill="#FFFF00" transform="translate(0,0)"/>
<path d="" fill="#FFFF00" transform="translate(0,0)"/>
<path d="" fill="#FFFF00" transform="translate(0,0)"/>
<path d="" fill="#FFFF00" transform="translate(0,0)"/>
<path d="" fill="#FF7F7F" transform="translate(0,0)"/>
<path d="" fill="#FFFF00" transform="translate(0,0)"/>
<path d="" fill="#FFFF00" transform="translate(0,0)"/>
<path d="" fill="#FFFF00" transform="translate(0,0)"/>
<path d="" fill="#FFFF00" transform="translate(0,0)"/>
<path d="" fill="#FFFF00" transform="translate(0,0)"/>
<path d="" fill="#FFFF00" transform="translate(0,0)"/>
<path d="" fill="#FF7F7F" transform="translate(0,0)"/>
<path d="" fill="#FFFF00" transform="translate(0,0)"/>
<path d="" fill="#FFFF00" transform="translate(0,0)"/>
<path d="" fill="#FFAA55" transform="translate(0,0)"/>
<path d="" fill="#FFFF00" transform="translate(0,0)"/>
<path d="" fill="#FFFF00" transform="translate(0,0)"/>
<path d="" fill="#FFFF00" transform="translate(0,0)"/>
<path d="" fill="#FFFF00" transform="translate(0,0)"/>
<path d="" fill="#FFFF00" transform="translate(0,0)"/>
<path d="" fill="#7F7F7F" transform="translate(0,0)"/>
<path d="" fill="#FFFF00" transform="translate(0,0)"/>
<path d="" fill="#FFFF00" transform="translate(0,0)"/>
<path d="" fill="#FFAA55" transform="translate(0,0)"/>
<path d="" fill="#FF7F7F" transform="translate(0,0)"/>
<path d="" fill="#FF0000" transform="translate(0,0)"/>
<path d="" fill="#FFFF00" transform="translate(0,0)"/>
<path d="" fill="#FFFF00" transform="translate(0,0)"/>
<path d="" fill="#FFFF00" transform="translate(0,0)"/>
<path d="" fill="#FFFF00" transform="translate(0,0)"/>
<path d="" fill="#FFFF00" transform="translate(0,0)"/>
<path d="" fill="#FFFF00" transform="translate(0,0)"/>
<path d="" fill="#FFFF00" transform="translate(0,0)"/>
<path d="" fill="#FFFF00" transform="translate(0,0)"/>
<path d="" fill="#FFFF00" transform="translate(0,0)"/>
<path d="" fill="#FF7F7F" transform="translate(0,0)"/>
<path d="" fill="#7F7F7F" transform="translate(0,0)"/>
<path d="" fill="#FFFF00" transform="translate(0,0)"/>
<path d="" fill="#FFFF00" transform="translate(0,0)"/>
<path d="" fill="#FFFF00" transform="translate(0,0)"/>
<path d="" fill="#FFFF00" transform="translate(0,0)"/>
<path d="" fill="#FFFF00" transform="translate(0,0)"/>
<path d="" fill="#AAAA55" transform="translate(0,0)"/>
<path d="" fill="#7F7F7F" transform="translate(0,0)"/>
<path d="" fill="#FFFF00" transform="translate(0,0)"/>
<path d="" fill="#FFFF00" transform="translate(0,0)"/>
<path d="" fill="#FF7F7F" transform="translate(0,0)"/>
<path d="" fill="#7F7F7F" transform="translate(0,0)"/>
<path d="" fill="#FFFF00" transform="translate(0,0)"/>
<path d="" fill="#FFFF00" transform="translate(0,0)"/>
<path d="" fill="#FFFF00" transform="translate(0,0)"/>
<path d="" fill="#FFFF00" transform="translate(0,0)"/>
<path d="" fill="#FFFF00" transform="translate(0,0)"/>
<path d="" fill="#7F7F7F" transform="translate(0,0)"/>
<path d="" fill="#FF0000" transform="translate(0,0)"/>
<path d="" fill="#FFFF00" transform="translate(0,0)"/>
<path d="" fill="#FFFF00" transform="translate(0,0)"/>
<path d="" fill="#FFFF00" transform="translate(0,0)"/>
<path d="" fill="#FFFF00" transform="translate(0,0)"/>
<path d="" fill="#FFFF00" transform="translate(0,0)"/>
<path d="" fill="#FFFF00" transform="translate(0,0)"/>
<path d="" fill="#FFFF00" transform="translate(0,0)"/>
<path d="" fill="#FF0000" transform="translate(0,0)"/>
<path d="" fill="#FFFF00" transform="translate(0,0)"/>
<path d="" fill="#FFFF00" transform="translate(0,0)"/>
<path d="" fill="#FFFF00" transform="translate(0,0)"/>
<path d="" fill="#FFFF00" transform="translate(0,0)"/>
<path d="" fill="#FFFF00" transform="translate(0,0)"/>
<path d="" fill="#FF0000" transform="translate(0,0)"/>
<path d="" fill="#FFFF00" transform="translate(0,0)"/>
<path d="" fill="#7F7F7F" transform="translate(0,0)"/>
<path d="" fill="#AA5555" transform="translate(0,0)"/>
<path d="" fill="#FFFF00" transform="translate(0,0)"/>
<path d="" fill="#FFFF00" transform="translate(0,0)"/>
<path d="" fill="#FFFF00" transform="translate(0,0)"/>
<path d="" fill="#FFFF00" transform="translate(0,0)"/>
<path d="" fill="#FFFF00" transform="translate(0,0)"/>
<path d="" fill="#FFFF00" transform="translate(0,0)"/>
<path d="" fill="#FFFF00" transform="translate(0,0)"/>
<path d="" fill="#7F7F7F" transform="translate(0,0)"/>
<path d="" fill="#FFFF00" transform="translate(0,0)"/>
<path d="" fill="#7F7F7F" transform="translate(0,0)"/>
<path d="" fill="#FFFF00" transform="translate(0,0)"/>
<path d="" fill="#FFFF00" transform="translate(0,0)"/>
<path d="" fill="#FFFF00" transform="translate(0,0)"/>
<path d="" fill="#FFFF00" transform="translate(0,0)"/>
<path d="" fill="#FFFF00" transform="translate(0,0)"/>
<path d="" fill="#FF0000" transform="translate(0,0)"/>
<path d="" fill="#FFFF00" transform="translate(0,0)"/>
<path d="" fill="#7F7F7F" transform="translate(0,0)"/>
<path d="" fill="#FFFF00" transform="translate(0,0)"/>
<path d="" fill="#FFFF00" transform="translate(0,0)"/>
<path d="" fill="#FF0000" transform="translate(0,0)"/>
<path d="" fill="#FFFF00" transform="translate(0,0)"/>
<path d="" fill="#FFFF00" transform="translate(0,0)"/>
<path d="" fill="#7F7F7F" transform="translate(0,0)"/>
<path d="" fill="#FFFF00" transform="translate(0,0)"/>
<path d="" fill="#FFFF00" transform="translate(0,0)"/>
<path d="" fill="#FFFF00" transform="translate(0,0)"/>
<path d="" fill="#FFFF00" transform="translate(0,0)"/>
<path d="" fill="#7F7F7F" transform="translate(0,0)"/>
<path d="" fill="#AA5555" transform="translate(0,0)"/>
<path d="" fill="#FFFF00" transform="translate(0,0)"/>
<path d="" fill="#FFFF00" transform="translate(0,0)"/>
<path d="" fill="#FFFF00" transform="translate(0,0)"/>
<path d="" fill="#7F7F7F" transform="translate(0,0)"/>
<path d="" fill="#FF0000" transform="translate(0,0)"/>
<path d="" fill="#FFFF00" transform="translate(0,0)"/>
<path d="" fill="#FFFF00" transform="translate(0,0)"/>
<path d="" fill="#FFFF00" transform="translate(0,0)"/>
<path d="" fill="#7F7F7F" transform="translate(0,0)"/>
<path d="" fill="#FF0000" transform="translate(0,0)"/>
<path d="" fill="#FFFF00" transform="translate(0,0)"/>
<path d="" fill="#FFFF00" transform="translate(0,0)"/>
<path d="" fill="#FFFF00" transform="translate(0,0)"/>
</svg>
